<svg width="20" height="13" viewBox="0 0 20 13" fill="none" xmlns="http://www.w3.org/2000/svg">
<path d="M5.288 12.224C3.63467 12.224 2.344 11.7707 1.416 10.864C0.488 9.95733 0.024 8.672 0.024 7.008V0.799999H3.192V6.912C3.192 7.872 3.37867 8.56 3.752 8.976C4.136 9.392 4.65867 9.6 5.32 9.6C5.98133 9.6 6.49867 9.392 6.872 8.976C7.24533 8.56 7.432 7.872 7.432 6.912V0.799999H10.552V7.008C10.552 8.672 10.088 9.95733 9.16 10.864C8.232 11.7707 6.94133 12.224 5.288 12.224Z" fill="#D62828"/>
<path d="M15.4661 12.096C14.7621 12.096 14.0901 12 13.4501 11.808C12.8208 11.616 12.3248 11.3813 11.9621 11.104L12.6021 9.888C12.9648 10.1333 13.4128 10.3413 13.9461 10.512C14.4795 10.6827 15.0235 10.768 15.5781 10.768C16.2928 10.768 16.8048 10.6667 17.1141 10.464C17.4341 10.2613 17.5941 9.97867 17.5941 9.616C17.5941 9.34933 17.4981 9.14133 17.3061 8.992C17.1141 8.84267 16.8581 8.73067 16.5381 8.656C16.2288 8.58133 15.8821 8.51733 15.4981 8.464C15.1141 8.4 14.7301 8.32533 14.3461 8.24C13.9621 8.144 13.6101 8.016 13.2901 7.856C12.9701 7.68533 12.7141 7.456 12.5221 7.168C12.3301 6.86933 12.2341 6.47467 12.2341 5.984C12.2341 5.472 12.3781 5.024 12.6661 4.64C12.9541 4.256 13.3595 3.96267 13.8821 3.76C14.4155 3.54667 15.0448 3.44 15.7701 3.44C16.3248 3.44 16.8848 3.50933 17.4501 3.648C18.0261 3.776 18.4955 3.96267 18.8581 4.208L18.2021 5.424C17.8181 5.168 17.4181 4.992 17.0021 4.896C16.5861 4.8 16.1701 4.752 15.7541 4.752C15.0821 4.752 14.5808 4.864 14.2501 5.088C13.9195 5.30133 13.7541 5.57867 13.7541 5.92C13.7541 6.208 13.8501 6.432 14.0421 6.592C14.2448 6.74133 14.5008 6.85867 14.8101 6.944C15.1301 7.02933 15.4821 7.104 15.8661 7.168C16.2501 7.22133 16.6341 7.296 17.0181 7.392C17.4021 7.47733 17.7488 7.6 18.0581 7.76C18.3781 7.92 18.6341 8.144 18.8261 8.432C19.0288 8.72 19.1301 9.104 19.1301 9.584C19.1301 10.096 18.9808 10.5387 18.6821 10.912C18.3835 11.2853 17.9621 11.5787 17.4181 11.792C16.8741 11.9947 16.2235 12.096 15.4661 12.096Z" fill="#FCBF49"/>
</svg>
